<svg viewBox="0 0 108 108" xmlns="http://www.w3.org/2000/svg">
  <rect width="108" height="108" rx="24" fill="#311B92"/>

  <rect x="16" y="22" width="76" height="64" rx="8" fill="none" stroke="white" stroke-width="3"/>

  <circle cx="30" cy="22" r="4" fill="#311B92" stroke="white" stroke-width="2"/>
  <circle cx="54" cy="22" r="4" fill="#311B92" stroke="white" stroke-width="2"/>
  <circle cx="78" cy="22" r="4" fill="#311B92" stroke="white" stroke-width="2"/>

  <circle cx="30" cy="86" r="4" fill="#311B92" stroke="white" stroke-width="2"/>
  <circle cx="54" cy="86" r="4" fill="#311B92" stroke="white" stroke-width="2"/>
  <circle cx="78" cy="86" r="4" fill="#311B92" stroke="white" stroke-width="2"/>

  <line x1="54" y1="30" x2="54" y2="78" stroke="white" stroke-width="1" stroke-dasharray="2,3"/>

  <rect x="26" y="44" width="8" height="20" rx="1" fill="white"/>
  <polygon points="34,44 46,37 46,71 34,64" fill="white"/>
  <path d="M44 47 Q48 54 44 61" fill="none" stroke="white" stroke-width="2" stroke-linecap="round"/>
  <path d="M48 44 Q54 54 48 64" fill="none" stroke="white" stroke-width="2" stroke-linecap="round"/>
  <line x1="46" y1="44" x2="56" y2="64" stroke="#FF5252" stroke-width="3" stroke-linecap="round"/>
  <line x1="56" y1="44" x2="46" y2="64" stroke="#FF5252" stroke-width="3" stroke-linecap="round"/>

  <circle cx="64" cy="40" r="4" fill="none" stroke="white" stroke-width="2.5"/>
  <circle cx="76" cy="38" r="4" fill="none" stroke="white" stroke-width="2.5"/>
  <line x1="68" y1="44" x2="58" y2="72" stroke="white" stroke-width="2.5" stroke-linecap="round"/>
  <line x1="78" y1="42" x2="60" y2="72" stroke="white" stroke-width="2.5" stroke-linecap="round"/>
</svg>
